<?xml version="1.0" encoding="UTF-8"?>
<svg width="253px" height="252px" viewBox="0 0 253 252" version="1.1" xmlns="http://www.w3.org/2000/svg" xmlns:xlink="http://www.w3.org/1999/xlink">
    <title>User icon@2x</title>
    <g id="UX-Changes" stroke="none" stroke-width="1" fill="none" fill-rule="evenodd">
        <g id="Person---Desktop" transform="translate(-146.000000, -431.000000)">
            <rect fill="#FFFFFF" x="0" y="0" width="1400" height="6466"></rect>
            <g id="Group" transform="translate(146.000000, 431.000000)">
                <rect id="Rectangle" fill="#F0F0F0" x="0" y="0" width="253" height="252"></rect>
                <path d="M125.990998,24 C96.7720139,24 73,47.786021 73,77 C73,106.214067 96.7720139,130 125.990998,130 C155.209983,130 179,106.214067 179,77 C179,47.786021 155.209983,24 125.990998,24 Z" id="Path" fill="#707070" fill-rule="nonzero"></path>
                <path d="M90.9287314,132 C52.9863814,146.401974 26,182.825466 26,225.447335 C26,226.654332 26.4821422,227.812261 27.3432263,228.666153 C28.2043105,229.520045 29.3726611,230 30.5910127,230 L223.408987,230 C224.627339,230 225.79569,229.520045 226.656774,228.666153 C227.517858,227.812261 228,226.654332 228,225.447335 C228,182.828529 201.001957,146.408549 163.057817,132.004441 C152.87514,139.271065 140.412846,143.579315 126.988792,143.579315 C113.563014,143.579315 101.10894,139.26832 90.9287314,132 Z" id="Path" fill="#707070" fill-rule="nonzero"></path>
            </g>
        </g>
    </g>
</svg>