<svg xmlns="http://www.w3.org/2000/svg" viewBox="0 0 20 20"><path clip-rule="evenodd" d="M6.431 14.46a.445.445 0 0 0 .446-.445V3.494L9.685 6.3a.446.446 0 0 0 .63-.631L6.748 2.1a.446.446 0 0 0-.631 0l-3.57 3.57a.446.446 0 0 0 .631.63l2.807-2.806v10.52c0 .247.2.447.446.447Z"/><path clip-rule="evenodd" d="M5.444 14.015a.988.988 0 0 0 1.975 0V4.8l1.883 1.883a.988.988 0 0 0 1.396-1.397L7.13 1.718a.988.988 0 0 0-1.397 0L2.164 5.287a.988.988 0 0 0 1.397 1.397L5.444 4.8v9.214ZM6.03 2.954l.401-.402.402.402a.54.54 0 0 0-.402.232.541.541 0 0 0-.401-.232Zm4.038 2.964Z"/><path d="M13.569 5.54c.246 0 .446.199.446.445v10.521l2.807-2.807a.446.446 0 0 1 .63.631l-3.567 3.57a.446.446 0 0 1-.63 0l-3.57-3.569a.446.446 0 1 1 .631-.63l2.808 2.806V5.986c0-.247.2-.447.446-.447Z"/><path clip-rule="evenodd" d="M12.58 5.985a.988.988 0 1 1 1.976 0V15.2l1.883-1.883a.988.988 0 0 1 1.397 1.397l-3.569 3.569a.988.988 0 0 1-1.397 0l-3.568-3.569a.988.988 0 1 1 1.396-1.397l1.883 1.883V5.985Zm.587 11.061.402.402.401-.402a.54.54 0 0 1-.401-.232.54.54 0 0 1-.402.232Zm4.038-2.964Z"/></svg>