<svg xmlns="http://www.w3.org/2000/svg" viewBox="0 0 20 20"><path clip-rule="evenodd" d="M12.459 16.569a.26.26 0 0 0 .258-.26V10.2l1.63 1.63a.26.26 0 0 0 .367-.366L12.642 9.39a.26.26 0 0 0-.367 0l-2.072 2.073a.259.259 0 1 0 .366.367l1.63-1.63v6.11a.26.26 0 0 0 .26.259Z"/><path clip-rule="evenodd" d="M11.885 16.31a.574.574 0 1 0 1.147 0v-5.351l1.093 1.093a.574.574 0 0 0 .812-.811l-2.073-2.073a.574.574 0 0 0-.811 0L9.98 11.241a.574.574 0 0 0 .811.81l1.094-1.092v5.35Zm.34-6.424.234-.234.233.234a.313.313 0 0 0-.233.135.315.315 0 0 0-.234-.135Zm2.345 1.721Z"/><path d="M16.604 11.387a.26.26 0 0 1 .259.26v6.11l1.63-1.63a.259.259 0 1 1 .367.366l-2.073 2.072a.259.259 0 0 1-.366 0l-2.073-2.072a.259.259 0 1 1 .366-.367l1.63 1.63v-6.11a.26.26 0 0 1 .26-.259Z"/><path clip-rule="evenodd" d="M16.03 11.646a.574.574 0 0 1 1.147 0v5.351l1.094-1.093a.574.574 0 0 1 .81.811l-2.072 2.073a.574.574 0 0 1-.811 0l-2.073-2.073a.574.574 0 0 1 .812-.811l1.093 1.093v-5.35Zm.34 6.424.234.234.233-.234a.314.314 0 0 1-.233-.135.315.315 0 0 1-.234.135Zm2.345-1.721Z"/><path opacity="0.6" clip-rule="evenodd" d="M8 2v5h2.496a8.519 8.519 0 0 0-1.474 1H8v1.022a8.519 8.519 0 0 0-1 1.474V8H2V7h5V2h1ZM6.374 12H2v1h4.132c.06-.34.142-.675.242-1ZM13 6.132V2h-1v4.374c.325-.1.66-.181 1-.242Z"/><path clip-rule="evenodd" d="M17.5 1h-15A1.5 1.5 0 0 0 1 2.5v15A1.5 1.5 0 0 0 2.5 19h4.788c-.2-.32-.38-.654-.536-1H2V2h16v4.752c.346.156.68.336 1 .536V2.5A1.5 1.5 0 0 0 17.5 1Z"/><path d="M9 1v18a1 1 0 0 1-1 1H2a1 1 0 0 1-1-1V1a1 1 0 0 1 1-1h6a1 1 0 0 1 1 1ZM7 2H3v4h4V2Zm0 6H3v4h4V8Zm0 6H3v4h4v-4Z"/></svg>